<?xml version="1.0" encoding="UTF-8"?>
<svg width="100pt" height="100pt" version="1.1" viewBox="0 0 100 100" xmlns="http://www.w3.org/2000/svg">
 <path d="m34 74h-12c-2.2109 0-4 1.7891-4 4s1.7891 4 4 4h12c6.6289 0 12-5.3711 12-12v-1.0781c1.2148-0.70312 2.2266-1.707 2.9297-2.9219h1.0703c17.648 0 32-10.77 32-24s-14.352-24-32-24-32 10.77-32 24c0 8.8789 6.4609 16.641 16 20.789 0.26562 2.5703 1.7539 4.8516 4 6.1328v1.0781c0 1.0625-0.42188 2.0781-1.1719 2.8281s-1.7656 1.1719-2.8281 1.1719zm3.3398-18.488c-6.75-2.8711-11.34-7.9102-11.34-13.512 0-8.6719 11-16 24-16s24 7.3281 24 16-11 16-24 16h-1.0898c-1.1367-1.9414-3.0352-3.3164-5.2344-3.7852-2.1992-0.47266-4.4961 0.007812-6.3242 1.3164z"/>
</svg>
